<svg height="480pt" viewBox="0 0 480 480.00192" width="480pt" xmlns="http://www.w3.org/2000/svg" fill="#99979A"><path d="m480 480v-16h-120.878906c6.796875-6.636719 11.792968-14.894531 14.519531-24h82.359375v16h16v-48h-16v16h-31.335938l14.722657-184h16.613281c4.417969 0 8-3.578125 8-8v-32c0-4.417969-3.582031-8-8-8h-1.054688l7.710938-11.558594c1.792969-2.6875 1.792969-6.191406 0-8.878906l-16-24c-.773438-1.15625-1.835938-2.09375-3.078125-2.71875l-31.351563-15.675781-25.371093-19.023438 11.800781-17.703125c1.589844-2.382812 1.78125-5.433594.503906-8l-16-32c-.875-1.753906-2.363281-3.125-4.183594-3.855468l-38.480468-15.382813-30.839844-30.855469c-2.433594-2.4374998-6.152344-3.042968-9.230469-1.503906l-30.3125 15.15625h-70.113281c-1.238281 0-2.464844.289062-3.574219.84375l-32 16c-1.453125.726562-2.652343 1.878906-3.433593 3.300781l-16.941407 30.800781-23.058593-2.878906c-3.140626-.394531-6.214844 1.101563-7.847657 3.816406l-24 40c-.304687.503907-.550781 1.039063-.734375 1.597657l-5.65625 16.96875-24.800781-6.199219c-2.117187-.535156-4.363281-.179688-6.210937.984375-1.847657 1.160156-3.144532 3.027344-3.582032 5.167969l-7.792968 38.945312-13.308594 26.652344h-3.058594c-4.417969 0-8 3.582031-8 8v32c0 4.421875 3.582031 8 8 8h16.617188l14.71875 184h-31.335938v-16h-16v48h16v-16h82.402344c2.722656 9.105469 7.722656 17.363281 14.519531 24h-120.921875v16zm-280.878906-16c6.796875-6.636719 11.792968-14.894531 14.519531-24h52.761719c2.722656 9.105469 7.722656 17.363281 14.519531 24zm-85.007813-72h-13.183593l-2.5625-32h283.234374l-2.5625 32h-13.148437c-10.445313-15.03125-27.585937-23.996094-45.890625-23.996094-18.300781 0-35.445312 8.964844-45.886719 23.996094h-68.222656c-10.445313-15.03125-27.585937-23.996094-45.890625-23.996094-18.300781 0-35.445312 8.964844-45.886719 23.996094zm-22.785156-120h297.34375l-1.917969 24h-293.503906zm3.199219 40h290.945312l-2.558594 32h-285.824218zm169.472656 112h-48c-.015625-5.417969-.824219-10.808594-2.398438-16h52.800782c-1.578125 5.191406-2.386719 10.582031-2.402344 16zm56 40c-22.089844 0-40-17.90625-40-40 0-22.089844 17.910156-40 40-40 22.09375 0 40 17.910156 40 40-.027344 22.082031-17.917969 39.976562-40 40zm84.425781-320.796875 30.09375 15.046875 11.882813 17.75-10.664063 16h-85.96875l-6.175781-18.527344c-.515625-1.542968-1.488281-2.894531-2.792969-3.871094l-25.945312-19.457031 24.800781-37.246093 32.976562 6.589843 30.566407 22.914063c.382812.304687.792969.570312 1.226562.800781zm-260.664062 46.855469-7.5625-30.25 7.089843-35.46875 43.609376-36.339844h79.902343l29.886719 67.25c.089844.199219.234375.359375.335938.550781.109374.203125.230468.398438.363281.585938.121093.222656.257812.4375.40625.648437.160156.191406.359375.34375.535156.519532.269531.304687.5625.585937.871094.847656l30 22.503906 3.699219 11.09375h-188.898438c0-.652344-.078125-1.304688-.238281-1.941406zm158.640625-172.320313 27.917968 27.917969c.765626.765625 1.679688 1.371094 2.679688 1.777344l37.175781 14.863281 12.570313 25.128906-10.449219 15.679688-34.695313-6.945313c-3.175781-.636718-6.425781.707032-8.222656 3.402344l-23.9375 35.902344-26.097656-58.710938c-1.289062-2.902344-4.167969-4.765625-7.34375-4.753906h-19.117188l15.238282-9.140625c1.816406-1.09375 3.125-2.859375 3.640625-4.914063l7.109375-28.429687zm-128.59375 28.304688 28.082031-14.042969h59.863281l-4.714844 18.84375-35.253906 21.15625h-37.289062l-23.359375-2.917969zm-49.601563 34.542969 40.546875 5.070312-33.839844 28.203125c-1.402343 1.167969-2.363281 2.785156-2.722656 4.574219l-5.789062 28.863281-24.800782-14.855469 5.695313-17.078125zm-69.007812 90.992187c.300781-.628906.515625-1.292969.640625-1.976563l6.402344-31.769531 22.703124 5.675781 18.070313 10.839844 17.875 10.726563 5.351563 26.925781h-81.296876zm-23.199219 36.421875h416v16h-416zm39.386719 216-14.722657-184h366.671876l-14.71875 184h-32.617188c-.015625-5.417969-.824219-10.808594-2.398438-16h12.800782c4.179687.015625 7.664062-3.191406 8-7.359375l10.878906-136c.179688-2.230469-.585938-4.433594-2.105469-6.074219s-3.65625-2.570312-5.894531-2.566406h-314.617188c-2.238281-.003906-4.375.925781-5.894531 2.566406s-2.285156 3.84375-2.105469 6.074219l10.882813 136c.332031 4.167969 3.816406 7.375 8 7.359375h12.796875c-1.554688 5.191406-2.34375 10.582031-2.34375 16zm48.613281 0c0-22.089844 17.910156-40 40-40 22.09375 0 40 17.910156 40 40 0 22.09375-17.90625 40-40 40-22.078125-.023438-39.972656-17.917969-40-40zm0 0"/><path d="m160 400c-13.253906 0-24 10.746094-24 24 0 13.257812 10.746094 24 24 24s24-10.742188 24-24c0-13.253906-10.746094-24-24-24zm0 32c-4.417969 0-8-3.578125-8-8 0-4.417969 3.582031-8 8-8s8 3.582031 8 8c0 4.421875-3.582031 8-8 8zm0 0"/><path d="m320 400c-13.253906 0-24 10.746094-24 24 0 13.257812 10.746094 24 24 24s24-10.742188 24-24c0-13.253906-10.746094-24-24-24zm0 32c-4.417969 0-8-3.578125-8-8 0-4.417969 3.582031-8 8-8s8 3.582031 8 8c0 4.421875-3.582031 8-8 8zm0 0"/></svg>