<svg height="512pt" viewBox="-59 0 512 512.00066" width="512pt" xmlns="http://www.w3.org/2000/svg"><g fill="#f78b29"><path d="m384.929688 492h-49.671876v-86.800781c0-20.0625-16.324218-36.386719-36.386718-36.386719h-22.980469l-4.933594-39.121094c25.730469-.039062 46.648438-20.980468 46.648438-46.71875v-41.894531c0-5.523437-4.476563-10-10-10h-49.082031l-5.902344-46.8125h6.707031c5.519531 0 10-4.480469 10-10v-41.925781c0-4.125-2.5-7.664063-6.0625-9.195313 5.066406-9.308593 9.40625-21.925781 7.386719-36.128906-4.148438-29.175781-34.507813-45.050781-35.796875-45.710937-3.101563-1.589844-6.804688-1.453126-9.777344.363281-2.972656 1.816406-4.785156 5.050781-4.785156 8.535156v3.074219c0 8.78125-7.847657 9.371094-9.421875 9.398437-2.132813.035157-9.035156-.472656-9.339844-8.683593-.015625-.378907-.023438-.765626-.023438-1.15625 0-25.496094 13.539063-33.488282 14.386719-33.960938 4.839844-2.515625 6.777344-8.460938 4.324219-13.351562-2.472656-4.9375-8.472656-6.933594-13.410156-4.464844-.007813.003906-.015625.007812-.023438.011718-.753906.378907-15.90625 8.078126-31.132812 21.972657-21.027344 19.191406-32.144532 41.113281-32.144532 63.402343 0 15.683594 3.996094 27.480469 8.828126 36.019532-4.800782.734375-8.480469 4.867187-8.480469 9.871094v41.929687c0 5.519531 4.476562 10 10 10h6.648437l-6.417968 46.8125h-53.464844c-5.519532 0-10 4.476563-10 10v41.894531c0 25.761719 20.957031 46.71875 46.71875 46.71875h3.21875l-5.363282 39.121094h-23.074218c-20.0625 0-36.386719 16.324219-36.386719 36.386719v86.800781h-24.84375c-5.519531 0-10 4.480469-10 10 0 5.523438 4.480469 10 10 10h334.039063c5.519531 0 10-4.476562 10-10 0-5.519531-4.480469-10-10-10zm-86.058594-103.1875c9.035156 0 16.386718 7.351562 16.386718 16.386719v86.800781h-23.835937l-13.007813-103.1875zm-1.265625-115.835938h-28.320313v-21.898437h28.320313zm-80.273438 0v-21.898437h31.953125v21.898437zm-54.714843 0v-21.898437h.152343c.011719 0 .023438.003906.035157.003906h34.523437v21.894531zm1.238281-108.710937v-21.925781h85.472656v21.925781zm17.992187-119.15625c-.222656 2.449219-.339844 5.027344-.339844 7.726563 0 .640624.011719 1.273437.035157 1.898437.695312 18.691406 15.484375 28.226563 29.699219 27.9375 7.449218-.136719 14.457031-2.832031 19.738281-7.582031 2.507812-2.257813 4.546875-4.925782 6.066406-7.898438 6.015625 5.339844 12.445313 13.101563 13.800781 22.640625 2.023438 14.234375-6.546875 26.984375-10.996094 32.507813h-62.394531c-4.144531-3.59375-13.949219-14.367188-13.949219-35.894532 0-16.300781 8.328126-30.34375 18.339844-41.335937zm-1.160156 139.15625h51.773438l5.902343 46.8125h-64.09375zm-70.070312 66.8125h32v21.894531h-32zm1.945312 41.898437h183.101562c-3.964843 9.792969-13.578124 16.71875-24.773437 16.71875h-11.25c-.007813 0-.015625-.003906-.023437-.003906h-107.597657c-.007812 0-.015625.003906-.019531.003906h-14.664062c-11.199219-.003906-20.808594-6.929687-24.773438-16.71875zm-16.828125 112.222657c0-9.035157 7.347656-16.386719 16.386719-16.386719h20.328125l-14.148438 103.1875h-22.566406zm42.753906 86.800781 22.253907-162.308594h90.058593l6.320313 50.136719c0 .011719.003906.023437.003906.035156l14.140625 112.136719zm0 0"/><path d="m19.21875 498.171875c-1.625-3.90625-5.660156-6.429687-9.886719-6.136719-4.050781.277344-7.621093 3.035156-8.863281 6.90625-1.277344 3.980469.125 8.445313 3.433594 10.992188 3.351562 2.582031 8.121094 2.738281 11.636718.386718 3.933594-2.628906 5.46875-7.785156 3.679688-12.148437zm0 0"/></g></svg>