<svg height="512" viewBox="0 0 64 64" width="512" xmlns="http://www.w3.org/2000/svg"><g id="outline" fill="#12B7C5"><path d="m61 38h-8v-9a1 1 0 0 0 -1-1h-1.18l-1.84-9.2a1 1 0 0 0 -.98-.8h-8a1 1 0 0 0 -.98.8l-1.02 5.1-1.02-5.1a1 1 0 0 0 -.98-.8h-8a1 1 0 0 0 -.98.8l-1.02 5.1-1.02-5.1a1 1 0 0 0 -.98-.8h-8a1 1 0 0 0 -.98.8l-1.84 9.2h-1.18a1 1 0 0 0 -1 1v9h-8a1 1 0 0 0 -1 1v22a1 1 0 0 0 1 1h58a1 1 0 0 0 1-1v-22a1 1 0 0 0 -1-1zm-20.181-18h6.362l1.6 8h-9.561zm-12 0h6.362l1.6 8h-9.561zm-12 0h6.362l1.6 8h-9.561zm-3.819 10h38v8h-17v-5a1 1 0 0 0 -1-1h-8a1 1 0 0 0 -1 1v5h-11zm10.8 20a2.966 2.966 0 0 1 3.726-.564 1 1 0 0 0 1.5-.717 2 2 0 0 1 1.974-1.719 1.981 1.981 0 0 1 1.9 1.428 1 1 0 0 0 1.589.486 3.9 3.9 0 0 1 4.259-.491 1 1 0 0 0 1.41-.652 4.986 4.986 0 0 1 3.174-3.486 1 1 0 0 0 .668-.942v-3.343h2v3.349a1 1 0 0 0 .666.942 4.994 4.994 0 0 1 3.234 5.709zm25.171 2a4.964 4.964 0 0 1 -6.8 1.122 1 1 0 0 0 -1.487.435 4 4 0 0 1 -7.684-1.516v-.041zm-29.306-3.707a4.986 4.986 0 0 1 2.319 1.707h-7.966a4.99 4.99 0 0 1 2.316-1.709 1 1 0 0 0 .666-.942v-7.349h2v7.351a1 1 0 0 0 .665.942zm22.335-8.293v2.675a6.975 6.975 0 0 0 -3.42 3.547 5.833 5.833 0 0 0 -4.329.462 3.957 3.957 0 0 0 -3.251-1.684 4.007 4.007 0 0 0 -3.566 2.218 4.968 4.968 0 0 0 -4.486.838 6.927 6.927 0 0 0 -1.948-1.373v-6.683zm-16-2v-4h2v4zm4 0v-4h2v4zm-1 14a3 3 0 0 1 -3 3 2.969 2.969 0 0 1 -1.806-.623 1 1 0 0 0 -1.538.433 4.986 4.986 0 0 1 -9.542-2.81zm31 8h-56v-20h11v6.681a7 7 0 1 0 9.013 9.9 4.895 4.895 0 0 0 1.987.419 5.008 5.008 0 0 0 4.9-4h.184a6 6 0 0 0 10.916 2.323 7 7 0 1 0 6-12.642v-2.681h12z"/><path d="m8 44h2v2h-2z"/><path d="m24 42h2v2h-2z"/><path d="m51 56h2v2h-2z"/><path d="m54 52h2v2h-2z"/><path d="m54 43h2v2h-2z"/><path d="m6 52h2v2h-2z"/><path d="m8 56h2v2h-2z"/><path d="m35 42h2v2h-2z"/><path d="m16 32h2v2h-2z"/><path d="m20 32h2v2h-2z"/><path d="m36 32h2v2h-2z"/><path d="m40 32h2v2h-2z"/><path d="m44 32h2v2h-2z"/><path d="m18.052 22.684-1 3 1.9.632.769-2.316h2.279v-2h-3a1 1 0 0 0 -.948.684z"/><path d="m30 22h4v2h-4z"/><path d="m45 22h-3v2h2.279l.773 2.316 1.9-.632-1-3a1 1 0 0 0 -.952-.684z"/><path d="m57 4a4.971 4.971 0 0 0 -4.645 3.194 4.85 4.85 0 0 0 -2.419-.075 5.983 5.983 0 0 0 -11.058-2.2 4.96 4.96 0 0 0 -6.378.531 4.985 4.985 0 0 0 -8.5 3.55 4.845 4.845 0 0 0 .219 1.434 3.994 3.994 0 1 0 5.781 3.566c0-.034 0-.068 0-.1a4.988 4.988 0 0 0 2.5-1.347 4.975 4.975 0 0 0 2.915 1.415 4.981 4.981 0 0 0 9.167.007 5.952 5.952 0 0 0 1.665-.418 4.989 4.989 0 0 0 9.4.252 4.87 4.87 0 0 0 1.353.191 5 5 0 0 0 0-10zm0 8a2.931 2.931 0 0 1 -1.529-.437 1 1 0 0 0 -1.508.753 2.989 2.989 0 0 1 -5.963-.271q0-.036 0-.069a1 1 0 0 0 -1.6-.8 4.129 4.129 0 0 1 -1.407.685 5 5 0 0 0 -1.686-3.611l-1.323 1.5a3 3 0 0 1 1.016 2.25 5.2 5.2 0 0 1 -.1.739 2.984 2.984 0 0 1 -5.79 0 1 1 0 0 0 -.968-.753h-.022c-.063 0-.126.008-.115.014a2.992 2.992 0 0 1 -2.622-1.579 1.04 1.04 0 0 0 -1.756 0 2.98 2.98 0 0 1 -2.593 1.579c-.027 0-.136-.016-.163-.018a1 1 0 0 0 -1 1.339 1.957 1.957 0 0 1 .129.679 2 2 0 1 1 -2.281-1.967 1 1 0 0 0 .718-1.5 2.931 2.931 0 0 1 -.437-1.533 2.987 2.987 0 0 1 5.622-1.421 1.04 1.04 0 0 0 1.756 0 2.968 2.968 0 0 1 5.029-.349 1 1 0 0 0 1.767-.319 3.987 3.987 0 0 1 7.826 1.089 2.23 2.23 0 0 1 -.03.3l-.023.171a1 1 0 0 0 1.511.974 2.913 2.913 0 0 1 3.071-.006 1 1 0 0 0 1.508-.752 2.99 2.99 0 1 1 2.963 3.313z"/><path d="m38 10h2v2h-2z"/><path d="m21 4h2v2h-2z"/><path d="m52 19h2v2h-2z"/></g></svg>