<svg id="Layer_3" enable-background="new 0 0 64 64" height="512" viewBox="0 0 64 64" width="512" xmlns="http://www.w3.org/2000/svg"><g fill="#0081C5"><path d="m60 12h-1v-8c0-1.654-1.346-3-3-3h-48c-1.654 0-3 1.346-3 3v8h-1c-1.654 0-3 1.346-3 3v47c0 .553.448 1 1 1h.5c1.827 0 3.638-.604 5.1-1.7 1.118-.838 2.503-1.3 3.9-1.3h1c1.397 0 2.782.462 3.9 1.3 1.462 1.097 3.273 1.7 5.1 1.7h1c1.827 0 3.638-.604 5.1-1.7 1.118-.838 2.503-1.3 3.9-1.3h1c1.397 0 2.782.462 3.9 1.3 1.462 1.097 3.273 1.7 5.1 1.7h1c1.827 0 3.638-.604 5.1-1.7 1.118-.838 2.503-1.3 3.9-1.3h1c1.397 0 2.782.462 3.9 1.3 1.462 1.097 3.273 1.7 5.1 1.7h.5c.552 0 1-.447 1-1v-47c0-1.654-1.346-3-3-3zm-47-9h16v2h-15c-.551 0-1-.449-1-1zm18 0h2v2h-2zm4 0h16v1c0 .551-.449 1-1 1h-15zm-28 1c0-.551.449-1 1-1h3v1c0 1.654 1.346 3 3 3h36c1.654 0 3-1.346 3-3v-1h3c.551 0 1 .449 1 1v20c0 .551-.449 1-1 1h-6v-2c1.654 0 3-1.346 3-3v-8c0-1.654-1.346-3-3-3h-6c-1.654 0-3 1.346-3 3v8c0 1.654 1.346 3 3 3v2h-9v-2c1.654 0 3-1.346 3-3v-8c0-1.654-1.346-3-3-3h-6c-1.654 0-3 1.346-3 3v8c0 1.654 1.346 3 3 3v2h-9v-2c1.654 0 3-1.346 3-3v-8c0-1.654-1.346-3-3-3h-6c-1.654 0-3 1.346-3 3v8c0 1.654 1.346 3 3 3v2h-6c-.551 0-1-.449-1-1zm46 45.557c-.835-.756-1.873-1.269-3-1.463v-21.094h3zm-33-.867v-21.69h9v22.35c-.633-.226-1.306-.35-2-.35-2.414 0-4.539 1.439-5.479 3.571-.174-.082-.351-.155-.532-.22.007-.118.011-.234.011-.351 0-1.223-.369-2.36-1-3.31zm-9-21.69h3v19.09c-1.142.193-2.173.708-3 1.45zm6-12c-1.654 0-3 1.346-3 3v3c-.551 0-1-.449-1-1v-8c0-.551.449-1 1-1h6c.551 0 1 .449 1 1v8c0 .551-.449 1-1 1v-3c0-1.654-1.346-3-3-3zm-1 3c0-.551.449-1 1-1s1 .449 1 1v28.812c-.608-.353-1.282-.6-2-.721zm16-3c-1.654 0-3 1.346-3 3v3c-.551 0-1-.449-1-1v-8c0-.551.449-1 1-1h6c.551 0 1 .449 1 1v8c0 .551-.449 1-1 1v-3c0-1.654-1.346-3-3-3zm-1 3c0-.551.449-1 1-1s1 .449 1 1v31.743c-.281.435-.521.901-.684 1.406-.281-.064-.564-.108-.851-.131-.147-.167-.303-.323-.465-.47zm4 9h9v23.722c-.073.113-.153.22-.219.338-.036-.006-.072-.011-.108-.016-.823-2.384-3.095-4.044-5.673-4.044-1.093 0-2.114.308-3 .827zm12-12c-1.654 0-3 1.346-3 3v3c-.551 0-1-.449-1-1v-8c0-.551.449-1 1-1h6c.551 0 1 .449 1 1v8c0 .551-.449 1-1 1v-3c0-1.654-1.346-3-3-3zm-1 3c0-.551.449-1 1-1s1 .449 1 1v30.092c-.714.119-1.39.358-2 .711zm-43 42.98v-45.98c0-.551.449-1 1-1h1v10c0 1.654 1.346 3 3 3h1v24.804c-1.843 1.063-3 3.031-3 5.196 0 .902.2 1.781.584 2.584-.059.042-.126.073-.184.116-.984.738-2.175 1.184-3.4 1.28zm48.5-2.98c-1.827 0-3.638.604-5.1 1.7-1.118.838-2.503 1.3-3.9 1.3h-1c-1.397 0-2.782-.462-3.9-1.3-1.462-1.097-3.273-1.7-5.1-1.7h-1c-1.827 0-3.638.604-5.1 1.7-1.118.838-2.503 1.3-3.9 1.3h-1c-1.397 0-2.782-.462-3.9-1.3-1.462-1.097-3.273-1.7-5.1-1.7h-1c-1.08 0-2.146.234-3.146.633-.229-.511-.354-1.064-.354-1.633 0-1.605.955-3.05 2.433-3.68.396-.169.64-.573.604-1.003-.006-.069-.015-.138-.024-.206-.005-.037-.013-.073-.013-.111 0-2.206 1.794-4 4-4s4 1.794 4 4c0 .275-.034.561-.103.871-.059.266-.007.545.144.771.151.228.389.383.658.43.642.114 1.237.386 1.77.809.276.22.646.274.974.153.329-.124.568-.411.632-.757.347-1.898 1.998-3.277 3.925-3.277 1.252 0 2.411.585 3.181 1.604.2.265.494.41.855.396.547.005 1.087.127 1.606.362.291.135.629.117.908-.041.278-.158.464-.44.5-.759.223-2.031 1.922-3.562 3.95-3.562 1.898 0 3.546 1.349 3.92 3.207.104.516.598.866 1.129.793.306.006.635.06 1.028.169.496.139 1.016-.122 1.202-.603.601-1.559 2.062-2.566 3.721-2.566 1.669 0 3.175 1.065 3.747 2.651.101.28.322.501.602.602 1.586.572 2.651 2.077 2.651 3.747 0 .571-.128 1.122-.357 1.632-1-.398-2.064-.632-3.143-.632zm9.5 2.98c-1.225-.097-2.416-.542-3.4-1.28-.06-.045-.129-.076-.19-.12.383-.8.59-1.674.59-2.58 0-2.147-1.175-4.101-3-5.161v-24.839h1c1.654 0 3-1.346 3-3v-10h1c.551 0 1 .449 1 1z"/><path d="m42 43c0-1.654-1.346-3-3-3s-3 1.346-3 3 1.346 3 3 3 3-1.346 3-3zm-4 0c0-.552.449-1 1-1s1 .448 1 1-.449 1-1 1-1-.448-1-1z"/><path d="m24 48c1.654 0 3-1.346 3-3s-1.346-3-3-3-3 1.346-3 3 1.346 3 3 3zm0-4c.551 0 1 .448 1 1s-.449 1-1 1-1-.448-1-1 .449-1 1-1z"/></g></svg>