<?xml version="1.0"?>
<svg xmlns="http://www.w3.org/2000/svg" width="512" height="512" viewBox="0 0 128 128" fill="#cf4a9b"><g><path d="M81.823,52.674c.043,0,.086,0,.129-.005A1.749,1.749,0,0,0,83.571,50.8l-.508-7.012a1.75,1.75,0,0,0-3.491.252l.508,7.012A1.749,1.749,0,0,0,81.823,52.674Z"/><path d="M80.18,10.75a7.759,7.759,0,0,0-7.75,7.75,1.75,1.75,0,0,0,3.5,0,4.255,4.255,0,0,1,4.25-4.25H91.571a1.75,1.75,0,0,0,0-3.5Z"/><path d="M102.055,10.75h-3.1a1.75,1.75,0,0,0,0,3.5h3.1a1.75,1.75,0,0,0,0-3.5Z"/><path d="M92.446,8.25h9.609a1.75,1.75,0,0,0,0-3.5H92.446a1.75,1.75,0,0,0,0,3.5Z"/><path d="M68.18,20.25a1.75,1.75,0,0,0,1.75-1.75A10.261,10.261,0,0,1,80.18,8.25H84.8a1.75,1.75,0,0,0,0-3.5H80.18A13.766,13.766,0,0,0,66.43,18.5,1.75,1.75,0,0,0,68.18,20.25Z"/><path d="M121.5,113.75H105.558V106.5a1.75,1.75,0,0,0-1.75-1.75H98.176a267.875,267.875,0,0,1-8.24-49.167l-1.291-17.74a4.75,4.75,0,0,0-.965-9.4h-33a4.75,4.75,0,0,0-.965,9.4L52.424,55.584a267.055,267.055,0,0,1-8.24,49.166H43.76L43.2,88.5h1.187a1.75,1.75,0,1,0,0-3.5H43.076l-.671-19.353h1.189a1.75,1.75,0,0,0,0-3.5h-1.31L41.613,42.8H42.8a1.75,1.75,0,0,0,0-3.5H41.492l-.67-19.353h1.192a1.75,1.75,0,0,0,0-3.5H22.847a1.75,1.75,0,0,0,0,3.5h1.191L23.368,39.3H22.057a1.75,1.75,0,0,0,0,3.5h1.19l-.67,19.352h-1.31a1.75,1.75,0,1,0,0,3.5h1.188L21.785,85H20.477a1.75,1.75,0,0,0,0,3.5h1.187l-.875,25.25H6.5a1.75,1.75,0,0,0-1.75,1.75v6a1.75,1.75,0,0,0,1.75,1.75h115a1.75,1.75,0,0,0,1.75-1.75v-6A1.75,1.75,0,0,0,121.5,113.75Zm-19.442,0H40.3v-5.5h61.755ZM54.68,31.942h33a1.25,1.25,0,0,1,0,2.5h-33a1.25,1.25,0,0,1,0-2.5Zm1.236,23.9,1.3-17.9H85.143l1.3,17.894a271.4,271.4,0,0,0,8.119,48.914H47.8A270.705,270.705,0,0,0,55.916,55.837ZM27.54,19.942h9.779L37.99,39.3H26.87ZM26.749,42.8H38.111l.671,19.352h-12.7Zm-.791,22.852H38.9L39.574,85H25.287ZM25.166,88.5H39.7l.563,16.25H38.553a1.749,1.749,0,0,0-1.75,1.75v7.25H24.292Zm94.584,31.25H8.25v-2.5h111.5Z"/><path d="M83.14,75.26H78.893A7.75,7.75,0,0,0,75.674,69.7L77.8,66.01a1.769,1.769,0,0,0,.16-1.35,1.739,1.739,0,0,0-.86-1.07c-.23-.12-.48-.23-.68-.31a13.914,13.914,0,0,0-10.44-.01,6.58,6.58,0,0,0-.72.32,1.739,1.739,0,0,0-.86,1.07,1.769,1.769,0,0,0,.16,1.35L66.686,69.7a7.745,7.745,0,0,0-3.218,5.562H59.23a1.733,1.733,0,0,0-1.74,1.89,13.58,13.58,0,0,0,3.97,8.57,14.06,14.06,0,0,0,1.87,1.56,1.757,1.757,0,0,0,.99.31,1.722,1.722,0,0,0,.39-.04,1.776,1.776,0,0,0,1.13-.84l2.122-3.668a7.667,7.667,0,0,0,6.436,0L76.52,86.71a1.77,1.77,0,0,0,1.14.84,1.581,1.581,0,0,0,.38.04,1.757,1.757,0,0,0,.99-.31,12.733,12.733,0,0,0,1.77-1.46,13.764,13.764,0,0,0,4.08-8.66,1.748,1.748,0,0,0-1.74-1.9Zm-14.5-9.19a10.279,10.279,0,0,1,5.08,0L72.4,68.356a7.085,7.085,0,0,0-2.442,0ZM63.85,83.16a10.186,10.186,0,0,1-2.54-4.4h2.637a7.743,7.743,0,0,0,1.218,2.117ZM66.93,76a4.25,4.25,0,1,1,4.25,4.25A4.255,4.255,0,0,1,66.93,76Zm11.58,7.16-1.315-2.282a7.723,7.723,0,0,0,1.218-2.118H81.05A10.346,10.346,0,0,1,78.51,83.16Z"/></g></svg>
