<?xml version="1.0"?>
<svg xmlns="http://www.w3.org/2000/svg" id="outline" viewBox="0 0 512 512" width="512" height="512" fill="#8EAB28"><path d="M493.04492,241.791,368,140.19189V104a8.00039,8.00039,0,0,0-8-8H296a8.00039,8.00039,0,0,0-8,8v16H176V96h8a8.00039,8.00039,0,0,0,8-8V32a8.00039,8.00039,0,0,0-8-8H88a8.00039,8.00039,0,0,0-8,8V88H24a8.00039,8.00039,0,0,0-8,8V480a8.00039,8.00039,0,0,0,8,8H488a8.00039,8.00039,0,0,0,8-8V248A8.00206,8.00206,0,0,0,493.04492,241.791ZM352,112v24H304V112Zm-64,28.19189-16,13V136h16ZM160,401.07178l-27.96875,15.98193A8,8,0,0,0,128,424v48H96V168h64ZM68.68555,152H32V115.31445ZM80,268.68555,43.31445,232H80Zm0,64L43.31445,296H80Zm0,64L43.31445,360H80Zm0-192L43.31445,168H80ZM96,136h64v16H96ZM68.68555,216H32V179.31445Zm0,64H32V243.31445Zm0,64H32V307.31445Zm0,64H32V371.31445ZM80,424v36.68555L43.31445,424Zm96-256h77.7749L176,231.19189Zm64-16V136h16v16Zm-16,0H208V136h16Zm-32-16v16H176V136Zm-32-16H96V96h64ZM96,40h80V80H96ZM80,140.68555,43.31445,104H80ZM32,435.31445,68.68555,472H32Zm112-6.67187,40-22.85694V472H144ZM232,472V432h16v40Zm32,0V424a8.00039,8.00039,0,0,0-8-8H224a8.00039,8.00039,0,0,0-8,8v48H200V372l80,33.333V472Zm32,0V400a7.99975,7.99975,0,0,0-4.92285-7.38477l-96-40A8.00049,8.00049,0,0,0,184,360v27.35742l-8,4.57129V256h40V240H190.53247l108.30835-88h58.31836l108.30835,88H320v16H480V472Z"/><rect x="232" y="240" width="24" height="16"/></svg>
