<?xml version="1.0"?>
<svg xmlns="http://www.w3.org/2000/svg" id="outline" viewBox="0 0 512 512" width="512" height="512" fill="#D7C944"><rect x="192" y="424" width="24" height="16"/><rect x="192" y="392" width="24" height="16"/><rect x="264" y="424" width="24" height="16"/><rect x="264" y="392" width="24" height="16"/><rect x="336" y="424" width="24" height="16"/><rect x="336" y="392" width="24" height="16"/><path d="M24,496H384a8.00039,8.00039,0,0,0,8-8V312a7.99958,7.99958,0,0,0-12.91113-6.31445L320,351.64258V312a7.99958,7.99958,0,0,0-12.91113-6.31445L248,351.64258V312a7.99958,7.99958,0,0,0-12.91113-6.31445L176,351.64258V344a8.00039,8.00039,0,0,0-8-8H152V304h24a8.00039,8.00039,0,0,0,8-8h16V280H184v-8h64a8.0005,8.0005,0,0,0,7.45605-10.89941l-56-144A8.00077,8.00077,0,0,0,192,112H24A8.0005,8.0005,0,0,0,16.544,122.89941l56,144A8.00077,8.00077,0,0,0,80,272h24v64H94.24585l-6.48511-25.94043A7.99866,7.99866,0,0,0,80,304H32a7.99866,7.99866,0,0,0-7.76074,6.05957l-8,32,.00732.00195A7.978,7.978,0,0,0,16,344V488A8.00039,8.00039,0,0,0,24,496Zm8-112H72v32H32Zm96,0v32H88V384Zm48-8h56V480H176Zm72,0h56V480H248ZM376,480H320V376h56Zm0-120H335.31592L376,328.35742Zm-72,0H263.31592L304,328.35742Zm-72,0H191.31689L232,328.35742ZM160,480H32V432H136a8.00039,8.00039,0,0,0,8-8V376a8.00039,8.00039,0,0,0-8-8H32V352H160ZM54.36133,176H93.19409l12.44458,32h-38.833Zm56,0h38.83276l12.44458,32H122.80591Zm-6.22217-16L91.69482,128h38.83277l12.44433,32Zm113.49951,48H178.80591l-12.44458-32h38.833Zm-49.77783,16,12.44434,32H141.47241l-12.44433-32ZM168,288H152V272h16Zm29.47241-32-12.44433-32h38.833l12.44458,32Zm1.49951-96H160.13916l-12.44434-32h38.83252ZM74.52759,128l12.44433,32h-38.833L35.69434,128Zm-1.49951,96h38.83276l12.44434,32H85.47266ZM120,272h16v64H120ZM73.75391,320l4,16H34.24609l4-16Z"/><path d="M339.75977,233.21582l-64,40A8.00008,8.00008,0,0,0,280,288H418.283l28.44458,192H424v16h32a8.00033,8.00033,0,0,0,7.91406-9.17188L434.458,288H488a8.00008,8.00008,0,0,0,4.24023-14.78418l-64-40a7.99431,7.99431,0,0,0-2.03247-.90527L422.6062,208H472a8.00008,8.00008,0,0,0,4.24023-14.78418l-61.5205-38.45044L410.75439,128H456a7.99991,7.99991,0,0,0,3.96875-14.94629l-56-32c-.05908-.03369-.1228-.05713-.18262-.08911L400.657,59.84326l43.78052-29.187A8.00005,8.00005,0,0,0,440,16H328a8.00005,8.00005,0,0,0-4.4375,14.65625l43.78027,29.187L364.21362,80.9646c-.05981.03223-.12329.05542-.18237.08911l-56,32A7.99991,7.99991,0,0,0,312,128h45.24536L353.28,154.76562l-61.52026,38.4502A8.00008,8.00008,0,0,0,296,208h49.39355l-3.6018,24.31079A7.99025,7.99025,0,0,0,339.75977,233.21582Zm-.989,19.48633L335.91187,272H307.89453ZM352.0874,272l3.55567-24h56.71386l3.55567,24Zm108.01807,0H432.08765l-2.85913-19.29834Zm-16-80H420.23584l-2.43579-16.44116Zm-76.61035-24h33.00976l3.55567,24h-40.1211ZM425.875,112H408.384l-1.61767-10.91919ZM382.90259,64h2.19507l2.37011,16h-6.93554Zm-4.74072,32h11.67651l2.37036,16H375.7915Zm35.41625-64-24,16H378.42188l-24-16ZM342.125,112l19.1084-10.91919L359.61572,112Zm52.4541,16,3.55567,24H369.86548l3.55542-24Zm-70.68457,64,26.30493-16.44092L347.76367,192Zm82.53638,16,3.55566,24H358.01343l3.55566-24Z"/><rect x="48" y="448" width="16" height="16"/><rect x="80" y="448" width="16" height="16"/><rect x="112" y="448" width="16" height="16"/></svg>
