<svg id="Capa_1" enable-background="new 0 0 512 512" height="512" viewBox="0 0 512 512" width="512" xmlns="http://www.w3.org/2000/svg" fill="#cf4a9b"><path d="m445.688 391.995c-9.199-5.29-18.374-10.622-27.558-15.937 5.005-11.771 10.193-23.9 14.903-36.054 1.809-4.667 1.189-9.911-1.656-14.029-5.785-8.372-16.86-8.854-24.343-1.738-19.67 18.705-39.082 36.993-58.652 55.536-3.775 3.577-5.639 8.435-5.11 13.327.523 4.846 3.339 9.144 7.725 11.792 9.344 5.643 18.76 10.957 28.098 16.289-4.745 11.236-10.339 24.163-14.92 36.004-2.887 7.462.421 15.744 7.694 19.265 5.747 2.782 12.285 2.235 18.298-3.483 19.049-18.114 39.518-37.385 58.67-55.548 3.818-3.621 5.674-8.511 5.09-13.415-.591-4.961-3.594-9.338-8.239-12.009zm-7.174 14.541c-19.699 18.688-58.873 56.518-60.109 56.412-.118-.057-.307-.179-.24-.35 5.243-13.492 11.522-28.003 16.918-40.732 1.493-3.522.907-8.28-3.768-10.971-10.839-6.238-21.798-12.343-32.564-18.845-.801-.484-.767-.71-.051-1.388 13.217-12.509 55.175-53.328 59.803-56.46.396.085.544.299.545.385-5.301 13.664-11.217 27.319-16.9 40.738-1.796 4.24-.293 8.652 3.739 10.98 10.778 6.223 21.533 12.493 32.325 18.692 1.1.634 1.137.747.302 1.539zm22.913-102.281c1.971-8.395 3.44-16.962 4.361-25.545.393-3.656-1.925-7.059-5.471-8.032l-134.227-36.857c-3.263-10.288-8.728-19.602-15.846-27.385l35.202-134.7c.93-3.557-.855-7.263-4.216-8.753-26.917-11.933-55.592-17.983-85.23-17.983s-58.313 6.05-85.23 17.983c-3.36 1.49-5.146 5.196-4.216 8.753l35.204 134.698c-7.118 7.784-12.585 17.098-15.848 27.387l-134.226 36.857c-3.547.974-5.864 4.377-5.471 8.034 2.179 20.257 7.28 40.038 15.164 58.794 1.625 3.865 6.079 5.581 9.82 4.008 3.818-1.605 5.613-6.002 4.008-9.82-6.497-15.458-10.96-31.665-13.295-48.269l120.82-33.175c-2.557 30.822 15.057 59.447 41.612 72.09l-89.069 87.969c-19.35-15.157-35.493-33.545-48.046-54.737-2.112-3.565-6.712-4.739-10.275-2.631-3.563 2.111-4.741 6.712-2.631 10.275 14.674 24.772 33.906 45.982 57.164 63.042 2.96 2.171 7.075 1.885 9.706-.712l98.986-97.763c10.178 2.255 21.457 2.262 31.647 0l23.767 23.473c-6.654 14.418-10.374 30.458-10.374 47.353 0 35.348 16.261 66.967 41.692 87.778-22.878 7.039-46.665 10.613-70.909 10.613-133.329 0-241-108.284-241-241 0-133.653 108.178-241 241-241 130.358 0 241 108.104 241 241 0 16.828-1.744 33.633-5.183 49.946-.854 4.053 1.739 8.031 5.792 8.886 4.053.851 8.032-1.738 8.886-5.792 3.652-17.329 5.505-35.175 5.505-53.04 0-141.971-115.028-256-256-256-141.669 0-256 115.186-256 256 0 138.999 114.758 256 256 256 29.672 0 58.706-5.04 86.368-14.957 16.585 9.513 35.788 14.957 56.24 14.957 62.525 0 113.392-50.867 113.392-113.392 0-39.307-20.108-74.002-50.573-94.353zm-278.723-230.043c23.279-9.434 47.904-14.212 73.296-14.212s50.017 4.778 73.296 14.212l-31.681 121.228c-11.842-8.163-26.176-12.957-41.615-12.957-15.438 0-29.771 4.793-41.613 12.955zm73.296 240.305c-32.267 0-58.517-26.25-58.517-58.517 0-32.266 26.25-58.516 58.517-58.516s58.517 26.25 58.517 58.516c0 32.267-26.25 58.517-58.517 58.517zm31.659 7.823c24.734-11.852 41.857-37.132 41.857-66.34 0-1.937-.099-3.851-.246-5.75l120.82 33.175c-.614 4.367-1.394 8.713-2.301 13.022-14.885-7.194-31.57-11.23-49.18-11.23-40.07 0-75.352 20.892-95.526 52.355zm110.949 174.66c-54.253 0-98.392-44.139-98.392-98.392s44.139-98.392 98.392-98.392 98.392 44.139 98.392 98.392-44.139 98.392-98.392 98.392z"/></svg>