<svg id="Capa_1" enable-background="new 0 0 512 512" height="512" viewBox="0 0 512 512" width="512" xmlns="http://www.w3.org/2000/svg" fill="#0FD81E"><path d="m96.73 224.371c4-1.075 6.371-5.19 5.296-9.19-5.894-21.923-7.341-44.475-4.186-65.218 6.833-44.921 33.611-76.92 54.898-95.868 37.265-31.734 86.251-45.072 134.4-36.592 43 7.571 80.477 31.435 105.527 67.193 23.878 34.085 33.73 75.087 28.044 116.089l-24.587-27.315c-2.771-3.08-7.514-3.328-10.592-.557-3.079 2.771-3.328 7.513-.557 10.592l34.732 38.585c2.38 2.647 7.482 3.748 10.64.611l42.93-38.64c3.078-2.771 3.328-7.513.557-10.592-2.771-3.08-7.515-3.328-10.592-.557l-26.982 24.288c9.804-92.364-53.694-178.125-146.517-194.471-52.601-9.261-106.104 5.317-146.792 40-.04.034-.08.069-.119.104-23.143 20.584-52.307 55.487-59.819 104.874-3.464 22.778-1.897 47.457 4.529 71.368 1.076 4 5.188 6.368 9.19 5.296zm415.264 122.481c-.001-4.142-3.359-7.499-7.502-7.498-4.142.001-7.499 3.359-7.498 7.502l.006 29.4c.005 32.271-12.407 62.604-34.952 85.414-22.517 22.782-52.443 35.328-84.274 35.327h-.021l-103.777-.018 38.825-39.283 46.553.008h.001c4.142 0 7.499-3.357 7.5-7.499s-3.356-7.5-7.499-7.501l-31.732-.006 23.555-23.833 46.554.007h.001c4.142 0 7.499-3.357 7.5-7.499s-3.356-7.5-7.499-7.501l-31.733-.005 45.169-45.701c2.912-2.946 2.884-7.695-.062-10.606-2.946-2.913-7.695-2.884-10.606.062l-32.166 32.545-.005-32.019c-.001-4.143-3.359-7.5-7.501-7.499-4.143.001-7.5 3.359-7.499 7.501l.007 47.191-23.381 23.656-.006-32.02c-.001-4.143-3.358-7.499-7.5-7.499h-.001c-4.143.001-7.5 3.359-7.499 7.501l.008 47.191-10.591 10.716c-.003.003-.007.006-.01.01l-40.878 41.359.018-104.946v-.001c-.005-32.271 12.407-62.604 34.952-85.414 22.517-22.782 52.443-35.327 84.274-35.327h.021l109.673.019c2.515 0 4.562 2.11 4.562 4.705l.012 51.564c.001 4.142 3.358 7.498 7.5 7.498h.002c4.142-.001 7.499-3.359 7.498-7.502l-.012-51.563c-.002-10.862-8.776-19.7-19.56-19.702l-109.673-.019h-.022c-35.869 0-69.588 14.129-94.943 39.783-14.47 14.641-25.219 32.038-31.783 51.016-6.564-18.978-17.313-36.375-31.783-51.016-25.356-25.656-59.072-39.783-94.944-39.783h-.022l-42.779.013c-4.143.001-7.499 3.36-7.498 7.502s3.358 7.498 7.5 7.498h.002l42.778-.013h.021c31.829 0 61.76 12.546 84.274 35.327 22.545 22.811 34.957 53.144 34.952 85.414l-.018 104.913c-13.274-13.69-40.274-40.527-51.443-52.05l.008-47.191c.001-4.142-3.356-7.5-7.499-7.501h-.001c-4.142 0-7.499 3.357-7.5 7.499l-.006 32.02-23.381-23.656.007-47.191c.001-4.142-3.356-7.5-7.499-7.501 0 0 0 0-.001 0-4.142 0-7.499 3.357-7.5 7.499l-.005 32.019-32.166-32.545c-2.912-2.947-7.66-2.974-10.606-.062-2.945 2.911-2.974 7.66-.062 10.606l45.169 45.701-31.733.005c-4.143.001-7.5 3.359-7.499 7.501.001 4.143 3.359 7.5 7.501 7.499l46.554-.007 23.555 23.833-31.732.006c-4.143.001-7.5 3.359-7.499 7.501.001 4.143 3.358 7.499 7.5 7.499h.001l46.553-.008 38.825 39.283-103.777.018h-.021c-31.829 0-61.76-12.546-84.274-35.327-22.545-22.812-34.957-53.145-34.952-85.415l.019-110.965c0-2.594 2.047-4.704 4.562-4.704l36.894-.005c4.143-.001 7.5-3.358 7.499-7.501s-3.358-7.5-7.501-7.499l-36.894.005c-10.783.002-19.558 8.84-19.56 19.702l-.019 110.965c-.006 36.244 13.945 70.323 39.283 95.96 25.356 25.656 59.072 39.784 94.943 39.783h.022l109.673-.019c4.564-.001 8.749-1.606 12.078-4.259 3.329 2.653 7.514 4.258 12.078 4.259l109.673.019h.022c35.869-.001 69.588-14.129 94.943-39.783 25.338-25.637 39.289-59.716 39.283-95.961zm-290.428-128.374c-2.887 7.463.422 15.744 7.694 19.265 5.718 2.768 12.282 2.207 18.298-3.483 19.485-18.431 39.244-37.115 58.671-55.548 3.817-3.622 5.672-8.512 5.088-13.416-.591-4.96-3.593-9.336-8.236-12.007-9.199-5.291-18.374-10.622-27.559-15.938 5.003-11.748 10.199-23.917 14.903-36.053 1.809-4.666 1.189-9.91-1.655-14.027-2.951-4.271-7.893-6.81-13.24-6.81-.107-.001-.213 0-.317.004-3.751.121-7.38 1.825-10.786 5.064-19.65 18.687-39.098 37.009-58.653 55.537-3.775 3.577-5.638 8.435-5.109 13.327.523 4.846 3.339 9.143 7.724 11.791 9.344 5.644 18.762 10.957 28.099 16.29-4.666 11.006-10.36 24.211-14.922 36.004zm13.99 5.413c5.167-13.349 11.681-28.345 16.921-40.739 1.488-3.521.899-8.275-3.771-10.963-10.839-6.238-21.791-12.355-32.564-18.846-.802-.483-.767-.71-.052-1.388 20.871-19.774 57.953-55.297 59.803-56.459.397.084.545.299.546.384-5.311 13.701-11.207 27.293-16.9 40.739-1.795 4.239-.293 8.651 3.739 10.979 10.78 6.224 21.535 12.487 32.325 18.693 1.108.638 1.136.746.303 1.536-15.586 14.786-58.63 55.976-59.935 56.488-.146-.056-.507-.187-.415-.424z"/></svg>