<?xml version="1.0"?>
<svg xmlns="http://www.w3.org/2000/svg" width="512" height="512" viewBox="0 0 128 128"><g fill="#0FB14C"><path d="M66.425,94.657a1.75,1.75,0,1,0-3.494.189l.324,6A1.749,1.749,0,0,0,65,102.5l.1,0a1.749,1.749,0,0,0,1.652-1.842Z"/><path d="M103.808,113.75H78.22V109.5a1.75,1.75,0,0,0-1.75-1.75H73.138L71.348,74.6h3.657a4.75,4.75,0,0,0,0-9.5,1.75,1.75,0,0,0,0,3.5,1.25,1.25,0,0,1,0,2.5H71.159l-.92-17.04,3.975,3.662a23,23,0,0,0,24.462,4.288,1.751,1.751,0,0,0,.2-3.13L71.693,43.192a7.743,7.743,0,0,0-3.112-5.332L70.7,28.433A23.061,23.061,0,0,0,62.19,5.108a1.777,1.777,0,0,0-1.07-.358A1.75,1.75,0,0,0,59.37,6.5V37.9A7.742,7.742,0,0,0,56.3,43.245l-9.21,2.884A22.955,22.955,0,0,0,31.144,65.161,1.75,1.75,0,0,0,33.755,66.9L57.819,53.007l-.978,18.1H52.625a1.75,1.75,0,0,0,0,3.5h4.027l-1.79,33.146H51.53a1.75,1.75,0,0,0-1.75,1.75v4.25H24.192a1.751,1.751,0,0,0-1.75,1.75v6a1.751,1.751,0,0,0,1.75,1.75h79.616a1.751,1.751,0,0,0,1.75-1.75v-6A1.751,1.751,0,0,0,103.808,113.75ZM59.75,44.1a4.25,4.25,0,1,1,6.627,3.522l-.015.008A4.246,4.246,0,0,1,59.75,44.1ZM89.78,60.3a19.4,19.4,0,0,1-13.194-5.147l-6.628-6.107a7.754,7.754,0,0,0,1.241-2.1L93.658,59.914A19.588,19.588,0,0,1,89.78,60.3ZM62.87,10.5a19.559,19.559,0,0,1,4.413,17.166l-1.975,8.8a7.124,7.124,0,0,0-2.438-.027ZM39,55.555a19.473,19.473,0,0,1,9.133-6.085l8.6-2.695A7.751,7.751,0,0,0,57.931,48.9L35.468,61.866A19.444,19.444,0,0,1,39,55.555Zm22.41-4.163a7.6,7.6,0,0,0,5.179,0L67.655,71.1H60.346ZM60.157,74.6h7.687l1.79,33.146H58.366ZM53.28,111.25H74.72v2.5H53.28Zm48.778,8.5H25.942v-2.5h76.116Z"/><path d="M76.562,16.582A30.351,30.351,0,0,1,94.25,44.1a29.476,29.476,0,0,1-.312,4.315A1.75,1.75,0,0,0,95.415,50.4a1.72,1.72,0,0,0,.257.019,1.751,1.751,0,0,0,1.729-1.5A33.1,33.1,0,0,0,97.75,44.1,33.862,33.862,0,0,0,78.019,13.4a1.75,1.75,0,1,0-1.457,3.183Z"/><path d="M32.15,48.885A1.754,1.754,0,0,0,33.9,47.13c0-.059,0-.117-.008-.175-.094-.934-.142-1.895-.142-2.855A30.121,30.121,0,0,1,52.771,16.015a1.75,1.75,0,0,0-1.3-3.249A33.6,33.6,0,0,0,30.25,44.1c0,1.059.052,2.119.154,3.152A1.746,1.746,0,0,0,32.15,48.885Z"/><path d="M89.885,47.128l.086,0a1.751,1.751,0,0,0,1.747-1.665c.021-.448.032-.906.032-1.365A27.732,27.732,0,0,0,79.467,21.068a1.75,1.75,0,1,0-1.953,2.9A24.238,24.238,0,0,1,88.25,44.1c0,.4-.009.8-.028,1.194A1.75,1.75,0,0,0,89.885,47.128Z"/><path d="M52.921,22.536a1.75,1.75,0,0,0-1.6-3.112,27.884,27.884,0,0,0-15.006,22.81,1.75,1.75,0,0,0,1.63,1.862c.04,0,.079,0,.119,0a1.75,1.75,0,0,0,1.744-1.634A24.368,24.368,0,0,1,52.921,22.536Z"/><path d="M44.166,41.02a1.748,1.748,0,0,0,2.114-1.286,18.261,18.261,0,0,1,6.881-10.318A1.749,1.749,0,1,0,51.079,26.6a21.754,21.754,0,0,0-8.2,12.3A1.749,1.749,0,0,0,44.166,41.02Z"/><path d="M76.576,28.459a1.75,1.75,0,0,0,.054,2.475,18.2,18.2,0,0,1,5.5,11.058,1.75,1.75,0,0,0,3.5-.142,1.784,1.784,0,0,0-.011-.193A21.687,21.687,0,0,0,79.05,28.406,1.75,1.75,0,0,0,76.576,28.459Z"/><path d="M91.671,80.875H77.29a1.75,1.75,0,0,0,0,3.5H91.671a4.75,4.75,0,0,0,0-9.5,1.75,1.75,0,1,0,0,3.5,1.25,1.25,0,0,1,0,2.5Z"/><path d="M48.847,84.375a1.75,1.75,0,1,0,0-3.5H38.528a1.75,1.75,0,1,0,0,3.5Z"/></g></svg>
